<svg xmlns="http://www.w3.org/2000/svg" version="1.1" xmlns:xlink="http://www.w3.org/1999/xlink" xmlns:svgjs="http://svgjs.dev/svgjs" width="1000" height="106" viewBox="0 0 1000 106"><g transform="matrix(1,0,0,1,-0.6060606060606233,-0.21703814952115152)"><svg viewBox="0 0 396 42" data-background-color="#ffffff" preserveAspectRatio="xMidYMid meet" height="106" width="1000" xmlns="http://www.w3.org/2000/svg" xmlns:xlink="http://www.w3.org/1999/xlink"><g id="tight-bounds" transform="matrix(1,0,0,1,0.2400000000000091,0.08599624792347527)"><svg viewBox="0 0 395.52 41.82800750415307" height="41.82800750415307" width="395.52"><g><svg viewBox="0 0 397.4975999999999 42.03714754167383" height="41.82800750415307" width="395.52"><g><rect width="397.4975999999999" height="1.2875423080348098" x="0" y="23.101768314380486" fill="#0074d9" opacity="1" stroke-width="0" stroke="transparent" fill-opacity="1" class="rect-o-0" data-fill-palette-color="secondary" rx="1%" id="o-0" data-palette-color="#0074d9"></rect></g><g transform="matrix(1,0,0,1,0.9887999999999693,27.75984022460066)"><svg viewBox="0 0 395.52 14.27730731707317" height="14.27730731707317" width="395.52"><g id="textblocktransform"><svg viewBox="0 0 395.52 14.27730731707317" height="14.27730731707317" width="395.52" id="textblock"><g><svg viewBox="0 0 395.52 14.27730731707317" height="14.27730731707317" width="395.52"><g transform="matrix(1,0,0,1,0,0)"><svg width="395.52" viewBox="3.5 -36 1024.9300537109375 37" height="14.27730731707317" data-palette-color="#0074d9"><path d="M3.5-35L21.5-35Q25.25-35 28.23-34.18 31.2-33.35 33.25-31.78 35.3-30.2 36.4-27.93 37.5-25.65 37.5-22.75L37.5-22.75Q37.5-19.85 36.4-17.57 35.3-15.3 33.25-13.73 31.2-12.15 28.23-11.33 25.25-10.5 21.5-10.5L21.5-10.5 10.75-10.5 10.75 0 3.5 0 3.5-35ZM21.5-31.25L10.75-31.25 10.75-14.25 21.5-14.25Q25.45-14.25 27.63-16.32 29.8-18.4 29.8-22.75L29.8-22.75Q29.8-27.1 27.63-29.18 25.45-31.25 21.5-31.25L21.5-31.25ZM56.25-30.75L48.75-12.25 64.25-12.25 56.75-30.75 56.25-30.75ZM50.75-35L62.25-35 76.5 0 69.3 0 66-8.5 47-8.5 43.7 0 36.5 0 50.75-35ZM96.5-2.5L96.5-2.5Q98.95-2.5 100.92-3.18 102.9-3.85 104.3-5.28 105.7-6.7 106.47-8.93 107.25-11.15 107.25-14.25L107.25-14.25 107.25-35 114.5-35 114.5-14.25Q114.5-6.55 109.8-2.78 105.09 1 96.5 1L96.5 1Q87.84 1 83.17-2.78 78.5-6.55 78.5-14.25L78.5-14.25 78.5-35 85.75-35 85.75-14.25Q85.75-11.15 86.52-8.93 87.3-6.7 88.7-5.28 90.09-3.85 92.07-3.18 94.05-2.5 96.5-2.5ZM128.74-3.75L150.24-3.75 150.24 0 121.49 0 121.49-35 128.74-35 128.74-3.75ZM170.24-32.5L170.24-32.5Q167.69-32.5 165.47-31.6 163.24-30.7 161.59-28.85 159.94-27 158.97-24.18 157.99-21.35 157.99-17.5L157.99-17.5Q157.99-13.65 158.97-10.83 159.94-8 161.59-6.15 163.24-4.3 165.47-3.4 167.69-2.5 170.24-2.5L170.24-2.5Q172.79-2.5 175.02-3.4 177.24-4.3 178.89-6.15 180.54-8 181.52-10.83 182.49-13.65 182.49-17.5L182.49-17.5Q182.49-21.35 181.52-24.18 180.54-27 178.89-28.85 177.24-30.7 175.02-31.6 172.79-32.5 170.24-32.5ZM170.24-36L170.24-36Q174.74-36 178.42-34.8 182.09-33.6 184.72-31.25 187.34-28.9 188.79-25.45 190.24-22 190.24-17.5L190.24-17.5Q190.24-13 188.79-9.55 187.34-6.1 184.72-3.75 182.09-1.4 178.42-0.2 174.74 1 170.24 1L170.24 1Q165.74 1 162.04-0.2 158.34-1.4 155.72-3.75 153.09-6.1 151.67-9.55 150.24-13 150.24-17.5L150.24-17.5Q150.24-22 151.67-25.45 153.09-28.9 155.72-31.25 158.34-33.6 162.04-34.8 165.74-36 170.24-36ZM231.74-2.5L231.74-2.5Q234.19-2.5 236.16-3.18 238.14-3.85 239.54-5.28 240.94-6.7 241.71-8.93 242.49-11.15 242.49-14.25L242.49-14.25 242.49-35 249.74-35 249.74-14.25Q249.74-6.55 245.04-2.78 240.34 1 231.74 1L231.74 1Q223.09 1 218.41-2.78 213.74-6.55 213.74-14.25L213.74-14.25 213.74-35 220.99-35 220.99-14.25Q220.99-11.15 221.76-8.93 222.54-6.7 223.94-5.28 225.34-3.85 227.31-3.18 229.29-2.5 231.74-2.5ZM285.48-35L292.73-35 292.73 0 283.23 0 264.48-28.5 263.98-28.5 263.98 0 256.73 0 256.73-35 266.23-35 284.98-6.5 285.48-6.5 285.48-35ZM299.73-35L316.23-35Q320.73-35 324.41-33.88 328.08-32.75 330.71-30.55 333.33-28.35 334.78-25.08 336.23-21.8 336.23-17.5L336.23-17.5Q336.23-13.2 334.78-9.93 333.33-6.65 330.71-4.45 328.08-2.25 324.41-1.13 320.73 0 316.23 0L316.23 0 299.73 0 299.73-35ZM316.23-31.25L306.98-31.25 306.98-3.75 316.23-3.75Q318.78-3.75 321-4.53 323.23-5.3 324.88-6.98 326.53-8.65 327.5-11.25 328.48-13.85 328.48-17.5L328.48-17.5Q328.48-21.15 327.5-23.75 326.53-26.35 324.88-28.03 323.23-29.7 321-30.48 318.78-31.25 316.23-31.25L316.23-31.25ZM377.23-36L377.23-36Q381.78-36 385.83-34.45 389.88-32.9 392.73-30.25L392.73-30.25 390.23-27.25Q387.38-29.9 384.25-31.08 381.13-32.25 377.73-32.25L377.73-32.25Q375.18-32.25 373.03-31.38 370.88-30.5 369.3-28.7 367.73-26.9 366.85-24.13 365.98-21.35 365.98-17.5L365.98-17.5Q365.98-13.55 366.88-10.73 367.78-7.9 369.38-6.08 370.98-4.25 373.25-3.38 375.53-2.5 378.23-2.5L378.23-2.5Q380.48-2.5 382.1-2.9 383.73-3.3 384.83-3.85L384.83-3.85Q386.13-4.45 386.98-5.25L386.98-5.25 386.98-14.75 380.48-14.75 380.48-18 394.23-18 394.23-4.25Q392.38-2.75 389.93-1.6L389.93-1.6Q387.83-0.6 384.75 0.2 381.68 1 377.73 1L377.73 1Q373.23 1 369.63-0.2 366.03-1.4 363.48-3.75 360.93-6.1 359.58-9.55 358.23-13 358.23-17.5L358.23-17.5Q358.23-22 359.58-25.45 360.93-28.9 363.4-31.25 365.88-33.6 369.4-34.8 372.93-36 377.23-36ZM407.47-35L407.47 0 400.22 0 400.22-35 407.47-35ZM432.47-2.5L432.47-2.5Q434.92-2.5 436.9-3.18 438.87-3.85 440.27-5.28 441.67-6.7 442.45-8.93 443.22-11.15 443.22-14.25L443.22-14.25 443.22-35 450.47-35 450.47-14.25Q450.47-6.55 445.77-2.78 441.07 1 432.47 1L432.47 1Q423.82 1 419.15-2.78 414.47-6.55 414.47-14.25L414.47-14.25 414.47-35 421.72-35 421.72-14.25Q421.72-11.15 422.5-8.93 423.27-6.7 424.67-5.28 426.07-3.85 428.05-3.18 430.02-2.5 432.47-2.5ZM489.97-9.25L489.97-9.25Q489.97-7.1 489.07-5.23 488.17-3.35 486.14-1.98 484.12-0.6 480.89 0.2 477.67 1 472.97 1L472.97 1Q470.32 1 467.79 0.6 465.27 0.2 462.99-0.55 460.72-1.3 458.79-2.38 456.87-3.45 455.47-4.75L455.47-4.75 457.97-7.75Q460.82-5.3 464.62-4.03 468.42-2.75 472.97-2.75L472.97-2.75Q478.02-2.75 480.12-4.15 482.22-5.55 482.22-8L482.22-8Q482.22-9.9 480.57-11.2 478.92-12.5 474.97-13.75L474.97-13.75 465.47-16.75Q460.77-18.25 458.37-20.58 455.97-22.9 455.97-26.5L455.97-26.5Q455.97-28.35 456.84-30.08 457.72-31.8 459.57-33.13 461.42-34.45 464.29-35.23 467.17-36 471.22-36L471.22-36Q473.67-36 476.09-35.6 478.52-35.2 480.74-34.45 482.97-33.7 484.89-32.63 486.82-31.55 488.22-30.25L488.22-30.25 485.72-27.25Q482.87-29.7 479.32-30.98 475.77-32.25 471.22-32.25L471.22-32.25Q467.47-32.25 465.59-30.95 463.72-29.65 463.72-27.75L463.72-27.75Q463.72-26.7 464.07-25.93 464.42-25.15 465.24-24.48 466.07-23.8 467.42-23.23 468.77-22.65 470.77-22L470.77-22 480.22-19Q484.77-17.55 487.37-15.2 489.97-12.85 489.97-9.25ZM529.72-35L513.47-10.5 513.47 0 506.22 0 506.22-10.5 489.97-35 497.97-35 509.72-17.25 509.97-17.25 521.72-35 529.72-35ZM565.71-9.25L565.71-9.25Q565.71-7.1 564.81-5.23 563.91-3.35 561.89-1.98 559.86-0.6 556.64 0.2 553.41 1 548.71 1L548.71 1Q546.06 1 543.54 0.6 541.01 0.2 538.74-0.55 536.46-1.3 534.54-2.38 532.61-3.45 531.21-4.75L531.21-4.75 533.71-7.75Q536.56-5.3 540.36-4.03 544.16-2.75 548.71-2.75L548.71-2.75Q553.76-2.75 555.86-4.15 557.96-5.55 557.96-8L557.96-8Q557.96-9.9 556.31-11.2 554.66-12.5 550.71-13.75L550.71-13.75 541.21-16.75Q536.51-18.25 534.11-20.58 531.71-22.9 531.71-26.5L531.71-26.5Q531.71-28.35 532.59-30.08 533.46-31.8 535.31-33.13 537.16-34.45 540.04-35.23 542.91-36 546.96-36L546.96-36Q549.41-36 551.84-35.6 554.26-35.2 556.49-34.45 558.71-33.7 560.64-32.63 562.56-31.55 563.96-30.25L563.96-30.25 561.46-27.25Q558.61-29.7 555.06-30.98 551.51-32.25 546.96-32.25L546.96-32.25Q543.21-32.25 541.34-30.95 539.46-29.65 539.46-27.75L539.46-27.75Q539.46-26.7 539.81-25.93 540.16-25.15 540.99-24.48 541.81-23.8 543.16-23.23 544.51-22.65 546.51-22L546.51-22 555.96-19Q560.51-17.55 563.11-15.2 565.71-12.85 565.71-9.25ZM619.46-35L619.46-31.25 605.96-31.25 605.96 0 598.71 0 598.71-31.25 585.21-31.25 585.21-35 619.46-35ZM623.45-35L641.45-35Q645.2-35 648.18-34.18 651.15-33.35 653.2-31.78 655.25-30.2 656.35-27.93 657.45-25.65 657.45-22.75L657.45-22.75Q657.45-18.75 655.45-16 653.45-13.25 649.7-11.8L649.7-11.8 657.95 0 649.7 0 642.35-10.5 641.45-10.5 630.7-10.5 630.7 0 623.45 0 623.45-35ZM641.45-31.25L630.7-31.25 630.7-14.25 641.45-14.25Q645.4-14.25 647.55-16.32 649.7-18.4 649.7-22.75L649.7-22.75Q649.7-27.1 647.55-29.18 645.4-31.25 641.45-31.25L641.45-31.25ZM680.2-30.75L672.7-12.25 688.2-12.25 680.7-30.75 680.2-30.75ZM674.7-35L686.2-35 700.45 0 693.25 0 689.95-8.5 670.95-8.5 667.65 0 660.45 0 674.7-35ZM720.45-2.5L720.45-2.5Q722.9-2.5 724.87-3.18 726.85-3.85 728.25-5.28 729.65-6.7 730.42-8.93 731.2-11.15 731.2-14.25L731.2-14.25 731.2-35 738.45-35 738.45-14.25Q738.45-6.55 733.75-2.78 729.05 1 720.45 1L720.45 1Q711.8 1 707.12-2.78 702.45-6.55 702.45-14.25L702.45-14.25 702.45-35 709.7-35 709.7-14.25Q709.7-11.15 710.47-8.93 711.25-6.7 712.65-5.28 714.05-3.85 716.02-3.18 718-2.5 720.45-2.5ZM756.2-35L769.2-5 769.7-5 782.7-35 793.45-35 793.45 0 786.2 0 786.2-28 785.7-28 773.7 0 765.2 0 753.2-28 752.7-28 752.7 0 745.45 0 745.45-35 756.2-35ZM821.94-32.5L830.44-32.5 838.24-4.75 838.74-4.75 847.19-35 854.44-35 844.69 0 833.94 0 826.44-26.75 825.94-26.75 818.44 0 807.69 0 797.94-35 805.19-35 813.64-4.75 814.14-4.75 821.94-32.5ZM889.44-31.25L866.19-31.25 866.19-19.75 884.44-19.75 884.44-16 866.19-16 866.19-3.75 889.44-3.75 889.44 0 858.94 0 858.94-35 889.44-35 889.44-31.25ZM901.69-3.75L923.19-3.75 923.19 0 894.44 0 894.44-35 901.69-35 901.69-3.75ZM952.94-35L952.94-31.25 939.44-31.25 939.44 0 932.19 0 932.19-31.25 918.69-31.25 918.69-35 952.94-35ZM987.43-31.25L964.18-31.25 964.18-19.75 982.43-19.75 982.43-16 964.18-16 964.18-3.75 987.43-3.75 987.43 0 956.93 0 956.93-35 987.43-35 987.43-31.25ZM1021.18-35L1028.43-35 1028.43 0 1018.93 0 1000.18-28.5 999.68-28.5 999.68 0 992.43 0 992.43-35 1001.93-35 1020.68-6.5 1021.18-6.5 1021.18-35Z" opacity="1" transform="matrix(1,0,0,1,0,0)" fill="#0074d9" class="wordmark-text-0" data-fill-palette-color="primary" id="text-0"></path></svg></g></svg></g></svg></g></svg></g><g transform="matrix(1,0,0,1,180.19944065816162,0)"><svg viewBox="0 0 37.09871868367666 19.731238712195122" height="19.731238712195122" width="37.09871868367666"><g><svg xmlns="http://www.w3.org/2000/svg" xmlns:xlink="http://www.w3.org/1999/xlink" version="1.1" x="8" y="0" viewBox="5.341000080108643 8.591999053955078 88.85498809814453 83.09599304199219" enable-background="new 0 0 100 100" xml:space="preserve" height="19.731238712195122" width="21.09871868367666" class="icon-icon-0" data-fill-palette-color="accent" id="icon-0"></svg></g></svg></g><g><rect width="103.66632065816167" height="1.2875423080348098" y="17.443696404160313" x="217.29815934183827" fill="#0074d9" data-fill-palette-color="secondary"></rect><rect width="103.66632065816167" height="1.2875423080348098" y="17.443696404160313" x="76.53311999999997" fill="#0074d9" data-fill-palette-color="secondary"></rect></g></svg></g><defs></defs><mask id="d234393c-60ea-4b72-8a6a-77948c4ee150"><g id="SvgjsG1149"><svg viewBox="0 0 395.52 41.82800750415307" height="41.82800750415307" width="395.52"><g><svg viewBox="0 0 397.4975999999999 42.03714754167383" height="41.82800750415307" width="395.52"><g></g><g transform="matrix(1,0,0,1,0.9887999999999693,27.75984022460066)"><svg viewBox="0 0 395.52 14.27730731707317" height="14.27730731707317" width="395.52"><g id="SvgjsG1147"><svg viewBox="0 0 395.52 14.27730731707317" height="14.27730731707317" width="395.52" id="SvgjsSvg1146"><g><svg viewBox="0 0 395.52 14.27730731707317" height="14.27730731707317" width="395.52"><g transform="matrix(1,0,0,1,0,0)"><svg width="395.52" viewBox="3.5 -36 1024.9300537109375 37" height="14.27730731707317" data-palette-color="#0074d9"></svg></g></svg></g></svg></g></svg></g><g transform="matrix(1,0,0,1,180.19944065816162,0)"><svg viewBox="0 0 37.09871868367666 19.731238712195122" height="19.731238712195122" width="37.09871868367666"><g><svg xmlns="http://www.w3.org/2000/svg" xmlns:xlink="http://www.w3.org/1999/xlink" version="1.1" x="8" y="0" viewBox="5.341000080108643 8.591999053955078 88.85498809814453 83.09599304199219" enable-background="new 0 0 100 100" xml:space="preserve" height="19.731238712195122" width="21.09871868367666" class="icon-icon-0" data-fill-palette-color="accent" id="SvgjsSvg1144"><path fill="white" d="M62.21 66.626c0.387-0.622 0.612-1.357 0.612-2.144 0-2.252-1.823-4.077-4.075-4.077-2.255 0-4.075 1.825-4.075 4.077 0 0.32 0.038 0.632 0.107 0.934-1.604-0.147-3.228-0.224-4.871-0.224-2.547 0-5.051 0.183-7.501 0.53-2.648-15.769 0.054-25.813 4.008-32.14 0.735 1.081 1.973 1.789 3.378 1.789 1.952 0 3.584-1.375 3.981-3.212 0.393 0.123 0.807 0.191 1.237 0.191 2.253 0 4.078-1.826 4.078-4.078 0-0.064-0.008-0.125-0.009-0.188 0.754 0.472 1.519 0.992 2.266 1.565 3.308 2.552 6.166 6.062 6.164 10.571 0 1.091-0.169 2.25-0.541 3.481-0.079 0.262 0.063 0.539 0.316 0.631 0.058 0.02 0.116 0.029 0.173 0.029 0.205 0 0.393-0.12 0.473-0.315 0.012-0.034 1.67-4.011 1.673-8.749 0.003-3.313-0.821-7.037-3.669-9.955-0.722-0.739-1.564-1.419-2.552-2.029 0.076-0.001 0.153-0.003 0.231-0.003 3.177-0.001 6.609 0.469 9.529 1.912 2.921 1.45 5.342 3.835 6.604 7.789 0.069 0.217 0.269 0.357 0.486 0.357 0.043 0 0.088-0.006 0.133-0.017 0.264-0.071 0.427-0.333 0.371-0.602-0.01-0.032-0.875-4.118-3.398-8.243-2.509-4.116-6.765-8.328-13.469-8.326-2.943 0-6.332 0.815-10.22 2.756C47.177 11.299 41.09 8.591 35.773 8.592 24.513 8.646 17.256 20.46 16.751 21.26v0.001c-0.018 0.026-0.026 0.041-0.026 0.042-0.139 0.235-0.071 0.537 0.16 0.688 0.227 0.149 0.533 0.095 0.695-0.124 3.447-4.689 7.935-6.236 12.537-6.247 4.371-0.001 8.816 1.444 12.325 3.01-0.725-0.082-1.422-0.125-2.089-0.125-6.927-0.01-10.689 4.291-12.596 8.476-1.929 4.194-2.137 8.332-2.142 8.367-0.013 0.272 0.188 0.508 0.459 0.536 0.017 0.002 0.036 0.004 0.052 0.004 0.25 0 0.467-0.185 0.506-0.438 0.736-4.792 3.652-7.459 7.188-9.019 3.532-1.547 7.662-1.894 10.565-1.891 0.34 0 0.66 0.004 0.963 0.013-13.485 11.498-11.815 38.832-11.463 43.1C22.044 71.392 11.992 79.155 5.341 89.346c1.452-0.421 2.985-0.66 4.558-0.66 2.453 0 4.804 0.568 6.895 1.523 2.043 0.934 4.33 1.479 6.693 1.479 2.38 0 4.667-0.546 6.707-1.479 2.075-0.956 4.435-1.523 6.892-1.523 2.448 0 4.808 0.568 6.895 1.523 2.033 0.934 4.303 1.479 6.687 1.479 2.38 0 4.658-0.546 6.711-1.479 2.082-0.956 4.442-1.523 6.877-1.523 2.459 0 4.815 0.568 6.902 1.523 2.026 0.934 4.332 1.479 6.686 1.479 2.381 0 4.651-0.546 6.711-1.479 2.081-0.956 4.436-1.523 6.88-1.523 0.938 0 1.864 0.084 2.761 0.241C86.847 77.898 75.493 69.773 62.21 66.626z"></path></svg></g></svg></g><g></g></svg></g><defs><mask></mask></defs></svg></g></mask><linearGradient x1="0" x2="1" y1="0.5" y2="0.5" id="1bd47abc-ceec-4ddf-95e6-4776efc0c333"><stop stop-color="#ffa62e" offset="0"></stop><stop stop-color="#f71b3d" offset="1"></stop></linearGradient><rect width="395.5199890136719" height="41.828006744384766" fill="url(#1bd47abc-ceec-4ddf-95e6-4776efc0c333)" mask="url(#d234393c-60ea-4b72-8a6a-77948c4ee150)" data-fill-palette-color="accent"></rect></svg><rect width="395.52" height="41.82800750415307" fill="none" stroke="none" visibility="hidden"></rect></g></svg></g></svg>